<?xml version="1.0" encoding="utf-8"?>
<!-- Generator: Adobe Illustrator 24.2.0, SVG Export Plug-In . SVG Version: 6.00 Build 0)  -->
<svg version="1.1" id="leaping_dog_xA0_Image_1_" xmlns="http://www.w3.org/2000/svg" xmlns:xlink="http://www.w3.org/1999/xlink"
	 x="0px" y="0px" viewBox="0 0 500 350" style="enable-background:new 0 0 500 350;" xml:space="preserve">
<g>
	<g>
		<path d="M46.46,232.85c-2.37,0.56-4.69,1.37-7.06,1.94c-4.77,1.16-10.89-1.81-10.89-6.43c0-2.8,3.23-6.05,5.74-8.25
			c2.36-2.06,5.79-2.85,8.59-4.48c9.09-5.31,17.89-11.15,27.23-15.95c4.34-2.23,9.64-2.63,14.55-3.66
			c6.67-1.4,13.36-2.71,20.07-3.84c3.7-0.62,7.48-1.05,11.23-1.12c3.76-0.08,4.83-1.65,3.62-5c-2.81-7.73-4.19-15.6-4.92-23.89
			c-0.67-7.67-4.4-15.07-6.82-22.58c-0.14-0.44-0.54-0.91-0.94-1.12c-6.75-3.55-13.4-7.34-20.36-10.43
			c-2.24-0.99-5.31-0.22-7.99-0.06c-11.2,0.63-22.48,0.72-33.57,2.21c-9.23,1.23-14.3-4.33-20-9.48c-0.12-0.11-0.16-0.29-0.26-0.42
			c-1.46-1.95-4.56-4.71-4.07-5.68c1.47-2.93,3.92-5.85,6.74-7.48c3.55-2.05,7.76-3.16,11.82-4.05c4.68-1.02,9.46-5.03,10.91-9.76
			c0.36-1.17,1.27-2.39,2.28-3.09c3.98-2.78,7.82-6.03,12.23-7.89c11.85-5.01,23.01-10.99,33.48-18.54c3.43-2.47,8.56-3.5,12.9-3.47
			c2.87,0.02,6.62,2.51,8.28,5.01c1.12,1.69-0.03,5.73-1.36,8.03c-3.31,5.7-6.1,12.16-13.53,14.08c-0.54,0.14-0.77,1.54-1.32,2.74
			c6.51,2.01,12.76,3.61,18.77,5.85c12.96,4.82,25.72,10.18,38.72,14.9c9.29,3.38,18.92,5.84,28.23,9.19
			c6.52,2.35,12.73,5.53,19.09,8.3c6.75,2.93,13.78,3.74,21.15,3.73c5.32-0.01,10.57,0.99,15.86,1.44
			c5.06,0.43,10.17,0.09,15.22,0.7c3.87,0.47,7.73,1.26,11.63,1.4c3.85,0.13,7.7-0.4,11.54-0.08c6.33,0.53,12.6,2.1,18.9,2.96
			c8.8,1.2,16.76-0.42,24.95-4.7c9.25-4.84,18.99-9.28,29.96-10.02c6.93-0.47,13.73-2.56,20.62-3.72
			c6.91-1.17,13.85-2.21,20.81-3.08c6.86-0.86,13.75-1.61,20.64-2c1.88-0.11,3.85,1.23,5.78,1.91c0.11,0.04-4.75,5.13-5.35,5.57
			c-2.24,1.66-4.76,2.96-7.34,3.99c-5.56,2.23-11.55,3.09-17.46,3.8c-12.39,1.47-24.04,5.7-36.58,6.62
			c-4.24,0.31-8.76,2.14-12.82,3.44c-2.41,0.78-4.63,2.18-6.81,3.24c-0.69,2.53-1.4,5.12-2.19,8.04c3.66,4.14,7.16,9.05,13.64,10.59
			c1.68,0.4,3.03,2.81,4.25,4.49c6.83,9.42,13.05,19.34,20.47,28.26c8.77,10.54,18.97,19.72,31.92,25.1
			c5.24,2.18,10.67,3.88,15.96,5.95c1.88,0.74,3.94,1.58,5.29,2.98c5.44,5.64,10.68,11.47,15.87,17.34
			c1.58,1.79,2.56,4.11,4.11,5.94c4.72,5.59,12.12,4.21,18.14,6.45c5.65,2.1,10.11,5.78,9.8,11.64c-0.05,0.91-1.92,2.57-2.79,2.47
			c-7.61-0.87-15.2-1.96-22.75-3.25c-1.08-0.18-2.07-1.65-2.84-2.72c-5.9-8.22-13.76-13.78-22.93-17.89
			c-4.86-2.18-9.05-5.99-14-7.85c-10.18-3.81-20.65-6.9-31.06-10.09c-3.85-1.18-7.87-1.79-12.21-1.99
			c2.14,5.86,5.38,10.41,10.33,13.86c5.25,3.66,10.84,7.14,15.15,11.75c2.8,2.99,4.12,7.74,5.14,11.93
			c2.78,11.36,4.99,22.86,7.6,34.27c0.46,1.99,1.78,3.78,2.67,5.67c1.72,3.67,1.27,6.83-2.62,7.27c-2.35,0.26-6.83,2.97-9.18,3.53
			c-2.16,0.52-6.33-0.68-7.29-1.68c-1.41-1.45,0.38-5.68,1.1-7.6c4.39-11.61,0.91-21.63-5.66-31.04c-4-5.73-7.71-11.99-12.86-16.51
			c-7.07-6.2-15.33-11.06-23.18-16.35c-5.2-3.51-11.12-6.15-15.73-10.28c-5.15-4.62-9.16-10.52-13.73-15.81
			c-8.08-9.36-16.66-17.64-27.82-23.97c-15.11-8.58-28.76-4.27-43.04,0.3c-6.81,2.18-13.68,4.19-20.41,6.6
			c-5.34,1.91-10.36,4.86-15.79,6.37c-8.28,2.3-16.77,5.04-25.21,5.17c-7.2,0.1-14.51-3.04-21.67-5.1c-3.73-1.07-8-4.98-10.83-8.65
			c-0.57-0.74-1.42-1.26-3.16-2.76c-0.81,4.11-1.83,7.32-2.01,10.57c-0.34,6.27-2.92,7.89-9.29,7.57c-10.97-0.54-22.02-0.62-32.98,0
			c-6.41,0.36-13.08,1.7-17.24,7.75c-0.98,1.43-1.38,3.5-2.66,4.42c-2.88,2.06-5.97,4.46-9.29,5.14c-5.6,1.14-11.26,3.99-17.18,1.44
			c-1.13-0.49-1.96-1.65-2.94-2.51c3.93-4.51,7.86-9.02,12.04-13.8c-7.86-1.3-12.18,1.96-15.97,11.34
			C54.91,228.8,50.15,231.98,46.46,232.85z"/>
	</g>
</g>
</svg>
